<svg width="88" height="88" viewBox="0 0 88 88" fill="none" xmlns="http://www.w3.org/2000/svg">
<foreignObject x="-20" y="-20" width="128" height="128"><div xmlns="http://www.w3.org/1999/xhtml" style="backdrop-filter:blur(20px);clip-path:url(#bgblur_0_10_16_clip_path);height:100%;width:100%"></div></foreignObject><g filter="url(#filter0_f_10_16)" data-figma-bg-blur-radius="40">
<path d="M20 44C20 30.7452 30.7452 20 44 20C57.2548 20 68 30.7452 68 44C68 57.2548 57.2548 68 44 68C30.7452 68 20 57.2548 20 44Z" fill="black" fill-opacity="0.04" style="mix-blend-mode:hard-light"/>
</g>
<defs>
<filter id="filter0_f_10_16" x="-20" y="-20" width="128" height="128" filterUnits="userSpaceOnUse" color-interpolation-filters="sRGB">
<feFlood flood-opacity="0" result="BackgroundImageFix"/>
<feBlend mode="normal" in="SourceGraphic" in2="BackgroundImageFix" result="shape"/>
<feGaussianBlur stdDeviation="10" result="effect1_foregroundBlur_10_16"/>
</filter>
<clipPath id="bgblur_0_10_16_clip_path" transform="translate(20 20)"><path d="M20 44C20 30.7452 30.7452 20 44 20C57.2548 20 68 30.7452 68 44C68 57.2548 57.2548 68 44 68C30.7452 68 20 57.2548 20 44Z"/>
</clipPath></defs>
</svg>
